<?xml version="1.0" encoding="UTF-8"?>
<svg width="482px" height="66px" viewBox="0 0 482 66" version="1.1" xmlns="http://www.w3.org/2000/svg" xmlns:xlink="http://www.w3.org/1999/xlink">
    <!-- Generator: Sketch 62 (91390) - https://sketch.com -->
    <title>Combined Shape</title>
    <desc>Created with Sketch.</desc>
    <g id="Page-1" stroke="none" stroke-width="1" fill="none" fill-rule="evenodd">
        <g id="Artboard" transform="translate(-121.000000, -551.000000)" fill="#FFFFFF" fill-rule="nonzero">
            <g id="Group" transform="translate(121.000000, 551.000000)">
                <g id="Bunkermate">
                    <path d="M63.2349252,18.513324 L63.2349252,45.9130435 L63.2390931,46.3082317 C63.3085592,49.5717985 64.2463513,52.0936455 66.0524694,53.8737728 C67.9308322,55.7251052 70.4979281,56.6507714 73.7537569,56.6507714 C77.3226463,56.6507714 80.2028026,55.5553997 82.3942259,53.3646564 C84.5856492,51.173913 85.6813608,47.826087 85.6813608,43.3211781 L85.6813608,43.3211781 L85.6813608,18.513324 L95.8245201,18.513324 L95.8245201,64.7966339 L85.6813608,64.7966339 L85.6813608,58.8723703 L85.4741844,59.185634 C82.3968231,63.7285447 77.6134447,66 71.124049,66 C65.7394089,66 61.3878684,64.3029453 58.0694274,60.9088359 C54.7509864,57.5147265 53.0917659,52.85554 53.0917659,46.9312763 L53.0917659,46.9312763 L53.0917659,18.513324 L63.2349252,18.513324 Z M217.438643,17.3099579 C224.325974,17.3099579 229.976715,19.6858345 234.390868,24.4375877 C238.80502,29.1893408 241.012097,34.9593268 241.012097,41.7475456 C241.012097,42.7966339 240.886873,44.1851332 240.636424,45.9130435 L240.636424,45.9130435 L203.257004,45.9130435 L203.348005,46.3152838 C204.142234,49.637047 205.833733,52.2028266 208.422502,54.0126227 C211.114822,55.8948107 214.401957,56.8359046 218.283907,56.8359046 C223.668547,56.8359046 227.707027,54.9228612 230.399347,51.0967742 L230.399347,51.0967742 L238.758061,55.9102384 L238.503132,56.2738034 C233.874722,62.7579345 227.103674,66 218.189988,66 C210.551313,66 204.384022,63.7012623 199.688115,59.1037868 C194.992208,54.5063114 192.644254,48.6900421 192.644254,41.654979 C192.644254,34.743338 194.960902,28.9579243 199.594197,24.2987377 C204.227492,19.6395512 210.17564,17.3099579 217.438643,17.3099579 Z M371.262327,16.863706 C378.409141,16.863706 383.894633,19.4793262 387.718805,24.7105666 L387.718805,24.7105666 L387.718805,18.0781011 L397.874803,18.0781011 L397.874803,64.7856049 L387.718805,64.7856049 L387.718805,58.0597243 L387.472453,58.3940139 C383.660456,63.4646713 378.257081,66 371.262327,66 C364.805119,66 359.288281,63.6179173 354.711812,58.8537519 C350.135344,54.0895865 347.84711,48.2822869 347.84711,41.431853 C347.84711,34.5191424 350.135344,28.6962736 354.711812,23.9632466 C359.288281,19.2302195 364.805119,16.863706 371.262327,16.863706 Z M458.396709,16.863706 C465.292757,16.863706 470.95065,19.2613578 475.37039,24.0566616 C479.79013,28.8519653 482,34.6748341 482,41.525268 C482,42.5839714 481.874617,43.9851965 481.623852,45.7289433 L481.623852,45.7289433 L444.197119,45.7289433 L444.288235,46.1348702 C445.083469,49.4870779 446.777109,52.0763733 449.369155,53.9027565 C452.064883,55.802195 455.356179,56.7519142 459.243042,56.7519142 C464.634498,56.7519142 468.678089,54.8213374 471.373817,50.9601838 L471.373817,50.9601838 L479.743112,55.8177642 L479.487859,56.1846613 C474.853591,62.7282204 468.073973,66 459.149005,66 C451.500661,66 445.325563,63.680194 440.623713,59.0405819 C435.921862,54.4009699 433.570936,48.5313936 433.570936,41.431853 C433.570936,34.4568657 435.890516,28.6184278 440.529675,23.9165391 C445.168835,19.2146503 451.124513,16.863706 458.396709,16.863706 Z M420.75385,5 L420.75385,18.0781011 L432.41444,18.0781011 L432.41444,27.7932619 L420.75385,27.7932619 L420.75385,50.2128637 L420.758406,50.5478971 C420.806997,52.3045733 421.244318,53.5785515 422.070368,54.3698315 C422.948047,55.2105666 424.248893,55.6776417 425.972905,55.7710567 C427.696917,55.8644717 429.844095,55.8489025 432.41444,55.7243492 L432.41444,55.7243492 L432.41444,64.7856049 L431.875647,64.8481763 C424.382387,65.6877493 418.982455,64.997418 415.675851,62.7771822 C412.290519,60.5040837 410.597852,56.3159775 410.597852,50.2128637 L410.597852,50.2128637 L410.597852,27.7932619 L401.946447,27.7932619 L401.946447,18.0781011 L410.597852,18.0781011 L410.597852,7.98928025 L420.75385,5 Z M26.1092432,-1.13686838e-13 L26.5964705,0.00471758256 C31.7691839,0.105359344 36.1618046,1.81626928 39.7743327,5.13744741 C43.4997523,8.56241234 45.3624621,12.8359046 45.3624621,17.9579243 C45.3624621,23.5736325 43.1397327,27.9859748 38.6942741,31.1949509 C41.5744304,32.6760168 43.8284658,34.7124825 45.4563802,37.3043478 C47.0842946,39.8962132 47.8982519,42.8892006 47.8982519,46.28331 C47.8982519,51.5904628 45.988583,56.002805 42.1692453,59.5203366 C38.3499075,63.0378682 33.6853065,64.7966339 28.1754423,64.7966339 L28.1754423,64.7966339 L-2.84217094e-13,64.7966339 L-2.84217094e-13,-1.13686838e-13 L26.1092432,-1.13686838e-13 Z M128.817804,17.3099579 C134.202444,17.3099579 138.553984,19.0070126 141.872425,22.401122 C145.190866,25.7952314 146.850087,30.454418 146.850087,36.3786816 L146.850087,36.3786816 L146.850087,64.7966339 L136.706928,64.7966339 L136.706928,37.3969144 L136.70276,37.0017262 C136.633294,33.7381595 135.695502,31.2163124 133.889383,29.4361851 C132.011021,27.5848527 129.443925,26.6591865 126.188096,26.6591865 C122.619207,26.6591865 119.73905,27.7545582 117.547627,29.9453015 C115.356204,32.1360449 114.260492,35.483871 114.260492,39.9887798 L114.260492,39.9887798 L114.260492,64.7966339 L104.117333,64.7966339 L104.117333,18.513324 L114.260492,18.513324 L114.260492,24.4375877 L114.467668,24.1243239 C117.54503,19.5814133 122.328408,17.3099579 128.817804,17.3099579 Z M164.346877,-1.13686838e-13 L164.346877,38.970547 L182.566997,18.513324 L194.964191,18.513324 L174.3022,41.1921459 L195.715536,64.7966339 L183.600096,64.7966339 L164.346877,43.4137447 L164.346877,64.7966339 L154.203718,64.7966339 L154.203718,-1.13686838e-13 L164.346877,-1.13686838e-13 Z M271,17.6802244 L271,28.5105189 L270.554306,28.4871719 C266.85871,28.3354046 263.626222,29.2534254 260.856841,31.2412342 C257.976684,33.3085554 256.536606,36.7180926 256.536606,41.4698457 L256.536606,41.4698457 L256.536606,64.7966339 L246.393447,64.7966339 L246.393447,18.513324 L256.536606,18.513324 L256.536606,26.2889201 L256.687209,25.9610001 C259.289964,20.440483 264.060894,17.6802244 271,17.6802244 L271,17.6802244 Z M325.344211,16.863706 C330.672976,16.863706 334.967333,18.5763144 338.227283,22.0015314 C341.487233,25.4267483 343.117208,30.0352221 343.117208,35.8269525 L343.117208,35.8269525 L343.117208,64.7856049 L332.96121,64.7856049 L332.96121,36.4808576 L332.956965,36.0798704 C332.891879,33.0348547 332.078307,30.6618811 330.516247,28.9609495 C328.886272,27.1860643 326.66073,26.2986217 323.839619,26.2986217 C320.705052,26.2986217 318.213071,27.3261868 316.363676,29.381317 C314.514282,31.4364472 313.589584,34.5191424 313.589584,38.6294028 L313.589584,38.6294028 L313.589584,64.7856049 L303.433586,64.7856049 L303.433586,36.4808576 L303.429586,36.0798704 C303.368256,33.0348547 302.60162,30.6618811 301.129679,28.9609495 C299.593741,27.1860643 297.415217,26.2986217 294.594107,26.2986217 C291.522231,26.2986217 289.014577,27.341756 287.071145,29.4280245 C285.127714,31.514293 284.155998,34.5814191 284.155998,38.6294028 L284.155998,38.6294028 L284.155998,64.7856049 L274,64.7856049 L274,18.0781011 L284.155998,18.0781011 L284.155998,23.6830015 L284.368331,23.3695131 C287.374464,19.0323083 291.786118,16.863706 297.603291,16.863706 C303.62166,16.863706 308.072746,19.3236345 310.956548,24.2434916 C314.091115,19.3236345 318.887003,16.863706 325.344211,16.863706 Z M372.860957,26.4854518 C368.597945,26.4854518 365.055884,27.902246 362.234774,30.7358346 C359.413663,33.5694232 358.003108,37.1347626 358.003108,41.431853 C358.003108,45.7289433 359.413663,49.309852 362.234774,52.1745789 C365.055884,54.9770291 368.597945,56.3782542 372.860957,56.3782542 C377.123968,56.3782542 380.666029,54.9614599 383.48714,52.1278714 C386.30825,49.2942828 387.718805,45.7289433 387.718805,41.431853 C387.718805,37.1347626 386.30825,33.5694232 383.48714,30.7358346 C380.666029,27.902246 377.123968,26.4854518 372.860957,26.4854518 Z M28.1754423,36.6563815 L10.8005862,36.6563815 L10.8005862,54.799439 L28.1754423,54.799439 C30.679926,54.799439 32.7930842,53.9200561 34.5149168,52.1612903 C36.2367494,50.4025245 37.0976657,48.2580645 37.0976657,45.7279102 C37.0976657,43.197756 36.2367494,41.0532959 34.5149168,39.2945302 C32.7930842,37.5357644 30.679926,36.6563815 28.1754423,36.6563815 L28.1754423,36.6563815 Z M217.344725,26.3814867 C213.588,26.3814867 210.457395,27.3997195 207.952911,29.4361851 C205.448427,31.4726508 203.851819,34.2496494 203.163086,37.7671809 L203.163086,37.7671809 L230.775019,37.7671809 C230.086286,34.002805 228.505331,31.1640954 226.032153,29.2510519 C223.558976,27.3380084 220.663166,26.3814867 217.344725,26.3814867 Z M458.302672,26.0183767 C454.541191,26.0183767 451.406624,27.0459418 448.89897,29.101072 C446.391316,31.1562021 444.792687,33.9586524 444.103082,37.5084227 L444.103082,37.5084227 L471.749965,37.5084227 C471.06036,33.7095457 469.477404,30.8448188 467.001096,28.914242 C464.524788,26.9836651 461.625313,26.0183767 458.302672,26.0183767 Z M26.1092432,9.99719495 L10.8005862,9.99719495 L10.8005862,27.029453 L26.1092432,27.029453 C28.4885027,27.029453 30.4920897,26.2117812 32.1200042,24.5764376 C33.7479186,22.941094 34.5618759,20.9200561 34.5618759,18.513324 C34.5618759,16.1065919 33.7479186,14.085554 32.1200042,12.4502104 C30.4920897,10.8148668 28.4885027,9.99719495 26.1092432,9.99719495 L26.1092432,9.99719495 Z" id="Combined-Shape"></path>
                </g>
            </g>
        </g>
    </g>
</svg>